<?xml version="1.0" encoding="UTF-8"?>
<!DOCTYPE svg PUBLIC "-//W3C//DTD SVG 1.1//EN" "http://www.w3.org/Graphics/SVG/1.1/DTD/svg11.dtd">
<!-- Creator: CorelDRAW X7 -->
<svg xmlns="http://www.w3.org/2000/svg" xml:space="preserve" width="300mm" height="160mm" version="1.1" style="shape-rendering:geometricPrecision; text-rendering:geometricPrecision; image-rendering:optimizeQuality; fill-rule:evenodd; clip-rule:evenodd"
viewBox="0 0 30000 16000"
 xmlns:xlink="http://www.w3.org/1999/xlink">
 <defs>
  <style type="text/css">
   <![CDATA[
    .fil0 {fill:#E5097F;fill-rule:nonzero}
   ]]>
  </style>
 </defs>
 <g id="Слой_x0020_1">
  <metadata id="CorelCorpID_0Corel-Layer"/>
  <g id="_2492428306400">
   <path class="fil0" d="M18611 775c0,103 -1009,1873 -3024,5310l149 0c532,0 963,151 1293,456 330,305 495,722 495,1249 0,651 -231,1243 -697,1781 -484,564 -1045,846 -1685,846 -463,0 -818,-156 -1066,-470 -222,-282 -335,-662 -335,-1141 0,-626 211,-1401 633,-2323 -456,184 -823,411 -1100,679 -385,1098 -743,1646 -1073,1646 -202,0 -303,-115 -303,-344 0,-360 413,-873 1236,-1543 103,-243 154,-458 154,-648 0,-230 -62,-457 -188,-681 -1238,1309 -1972,2070 -2201,2285 -860,816 -1683,1426 -2471,1830 -975,502 -1997,752 -3063,752 -1052,0 -1919,-282 -2598,-846 -726,-601 -1089,-1417 -1089,-2453 0,-1071 383,-1947 1149,-2632 738,-658 1648,-988 2730,-988 752,0 1445,220 2075,658 699,488 1048,1089 1048,1806 0,385 -156,578 -470,578 -301,0 -452,-193 -452,-578 0,-85 21,-211 64,-378 42,-170 62,-296 62,-381 0,-460 -227,-816 -678,-1066 -372,-206 -807,-309 -1305,-309 -976,0 -1806,360 -2492,1080 -667,706 -1002,1549 -1002,2533 0,880 301,1566 901,2059 551,456 1280,683 2183,683 1357,0 2749,-539 4172,-1616 828,-626 1928,-1692 3299,-3198 -277,-340 -587,-509 -928,-509 -422,0 -782,254 -1082,765 -76,131 -129,195 -156,195 -44,0 -67,-20 -67,-66 0,-346 172,-640 514,-881 309,-220 644,-330 1004,-330 417,0 763,168 1038,500l1976 -2054c1633,-1687 2653,-2531 3061,-2531 192,0 289,92 289,275zm-411 126c5,-94 -18,-140 -66,-140 -243,0 -1137,800 -2687,2398l-2029 2105c106,231 158,488 158,770 0,259 -75,530 -224,816 309,-268 699,-479 1174,-630 153,-248 570,-858 1249,-1834l2425 -3485zm-1336 7011c0,-1025 -470,-1548 -1412,-1566 -645,1281 -968,2281 -968,2998 0,578 239,867 713,867 511,0 926,-264 1250,-793 277,-456 417,-958 417,-1506z"/>
   <path class="fil0" d="M28102 6546c0,188 -62,355 -183,499 -124,147 -278,218 -461,218 -296,0 -442,-156 -442,-470 0,-57 32,-156 96,-296 64,-139 98,-233 98,-282 0,-211 -192,-316 -577,-316 -408,0 -947,316 -1614,947 -241,229 -679,701 -1316,1419 -1100,1240 -2290,2102 -3565,2584 376,300 644,589 805,866 179,314 268,695 268,1142 0,133 -9,332 -27,596 -21,266 -30,465 -30,598 0,819 312,1229 933,1229 713,0 1313,-248 1802,-745 488,-498 731,-1101 731,-1814 0,-339 -76,-639 -227,-898 -179,-310 -429,-463 -745,-463 -367,0 -821,266 -1362,800 -57,-9 -87,-35 -87,-74 0,-210 222,-447 665,-706 415,-243 745,-364 986,-364 440,0 786,142 1045,424 257,282 385,644 385,1089 0,821 -362,1527 -1086,2125 -686,564 -1447,846 -2284,846 -550,0 -981,-181 -1290,-546 -296,-339 -443,-791 -443,-1350 0,-158 9,-390 30,-697 21,-307 32,-539 32,-694 0,-583 -131,-991 -390,-1225 -440,193 -898,326 -1377,397 -686,1197 -1477,2143 -2378,2843 -1066,830 -2207,1244 -3425,1244 -928,0 -1669,-259 -2223,-779 -574,-530 -860,-1254 -860,-2176 0,-359 55,-671 167,-935 154,-358 381,-536 686,-536 314,0 470,149 470,449 0,259 -99,440 -296,543 -174,51 -351,101 -525,156 -216,90 -323,211 -323,362 0,418 325,915 974,1497 704,629 1596,940 2673,940 1036,0 1958,-362 2769,-1086 612,-551 1213,-1369 1800,-2451 -1048,0 -1573,-250 -1573,-752 0,-452 385,-678 1156,-678 394,0 761,45 1102,139 498,-823 817,-1341 961,-1552 376,-564 747,-1043 1114,-1437 -779,497 -1492,745 -2143,745 -590,0 -1043,-147 -1358,-442 -96,-90 -284,-370 -563,-835 -179,-296 -395,-442 -645,-442 -605,0 -1123,215 -1559,646 -433,431 -651,949 -651,1554 0,418 110,775 330,1071 241,332 562,497 961,497 321,0 651,-119 988,-357 222,-158 463,-381 718,-667 215,-239 337,-358 364,-358 71,0 106,32 106,101 0,48 -104,174 -310,378 -931,915 -1751,1371 -2462,1371 -390,0 -690,-144 -901,-431 -193,-254 -289,-584 -289,-988 0,-555 168,-1098 505,-1628 314,-488 722,-887 1221,-1196 333,-207 734,-310 1204,-310 376,0 695,69 954,209 103,53 355,341 754,866 323,420 669,631 1041,631 332,0 763,-126 1290,-378 457,-220 846,-454 1163,-706 139,-117 348,-289 625,-519 305,-243 535,-364 693,-364 137,0 208,69 208,209 0,155 -194,323 -584,502 -51,23 -305,133 -766,330 -18,9 -73,50 -167,128 -422,339 -858,858 -1311,1550 -223,341 -597,992 -1122,1955 211,85 521,227 929,429 621,-264 1366,-846 2231,-1747 1267,-1320 1987,-2054 2157,-2203 846,-722 1646,-1084 2402,-1084 330,0 622,59 871,181 319,151 477,376 477,672zm-8388 4316c-266,-201 -527,-330 -779,-385l-363 690c386,-46 766,-147 1142,-305zm-1155 -495c-234,-53 -441,-80 -622,-80 -188,0 -366,37 -538,108 -220,94 -330,220 -330,376 0,316 286,476 857,476l190 0 443 -880z"/>
   <path class="fil0" d="M28322 4200c0,103 -1009,1873 -3024,5310l149 0c532,0 963,151 1293,456 330,305 495,722 495,1249 0,651 -232,1243 -697,1782 -484,563 -1045,845 -1685,845 -463,0 -818,-155 -1066,-470 -222,-281 -335,-662 -335,-1141 0,-626 211,-1401 633,-2322 -456,183 -823,410 -1100,678 -385,1098 -743,1646 -1073,1646 -202,0 -303,-115 -303,-344 0,-360 413,-873 1236,-1543 103,-243 153,-458 153,-648 0,-230 -61,-457 -188,-681 -1238,1309 -1971,2070 -2200,2285 -860,816 -1683,1426 -2472,1830 -974,502 -1996,752 -3062,752 -1053,0 -1919,-282 -2598,-846 -727,-601 -1089,-1417 -1089,-2453 0,-1071 383,-1946 1149,-2632 738,-658 1648,-988 2730,-988 752,0 1444,220 2075,658 699,488 1048,1089 1048,1806 0,386 -156,578 -470,578 -301,0 -452,-192 -452,-578 0,-84 21,-210 64,-378 41,-169 62,-296 62,-380 0,-461 -227,-817 -679,-1066 -371,-207 -806,-310 -1304,-310 -977,0 -1806,360 -2492,1080 -667,706 -1002,1550 -1002,2533 0,880 301,1566 901,2059 550,456 1279,683 2183,683 1357,0 2748,-539 4172,-1616 828,-626 1928,-1692 3299,-3198 -278,-340 -587,-509 -929,-509 -421,0 -781,254 -1082,765 -75,131 -128,195 -156,195 -43,0 -66,-20 -66,-66 0,-346 172,-640 514,-881 309,-220 644,-330 1004,-330 417,0 763,168 1038,500l1976 -2054c1632,-1687 2653,-2531 3061,-2531 192,0 289,92 289,275zm-411 126c5,-94 -18,-139 -66,-139 -243,0 -1137,800 -2687,2397l-2029 2105c106,231 158,488 158,770 0,259 -75,530 -224,816 309,-268 699,-479 1173,-630 154,-248 571,-857 1250,-1834l2425 -3485zm-1336 7011c0,-1025 -470,-1548 -1412,-1566 -645,1281 -968,2281 -968,2999 0,577 239,866 713,866 511,0 926,-264 1249,-793 278,-456 418,-958 418,-1506z"/>
  </g>
 </g>
</svg>
